<?xml version="1.0" encoding="UTF-8"?>
<svg id="Layer_2" data-name="Layer 2" xmlns="http://www.w3.org/2000/svg" viewBox="0 0 156.93 157.02">
  <g id="Layer_1-2" data-name="Layer 1">
    <g>
      <path d="M156.93,46.9v51.77h-21.91c-13.04,0-23.64-10.58-23.64-23.64v-29.32H45.62v111.31H0V.13C.76.09,1.32.04,1.9.04,37.85.01,73.82-.06,109.77.11c6.8.05,13.36,2.12,19.4,5.34,15.33,8.14,24.57,20.77,27.35,37.92.12.78.22,1.56.29,2.34.05.39.1.8.12,1.19Z"/>
      <path d="M154.93,111.51c.63,0,1.24.05,2,.1v45.41h-45.53v-2.05c.02-6.7.02-13.43.02-20.16-.02-16.72-11.43-30.25-27.91-33-1.78-.29-3.58-.41-5.39-.41-6.75-.05-13.53-.02-20.3-.02h-2.02v-45.45h45.33c.05.66.12,1.29.12,1.9.02,6.7-.1,13.43.05,20.13.29,14.38,6.97,24.74,19.99,30.86,4.02,1.9,8.41,2.68,12.92,2.71h20.72Z"/>
    </g>
  </g>
</svg>