<?xml version="1.0" encoding="UTF-8"?>
<svg id="Layer_2" data-name="Layer 2" xmlns="http://www.w3.org/2000/svg" viewBox="0 0 646.81 132.15">
  <defs>
    <style>
      .cls-1 {
        fill: #fff;
      }
    </style>
  </defs>
  <g id="Layer_1-2" data-name="Layer 1">
    <g>
      <g>
        <path class="cls-1" d="M401.18,107.3h-13.56v-58.97h13.11v6.56c4.87-6.25,10.99-8.94,18.57-8.46,7.37.46,13.44,3.11,17.42,9.67,7.73-13.4,29.88-11.75,37.21-2.7,3.46,4.27,5.52,9.09,5.65,14.33.33,13.06.11,26.14.11,39.53h-13.17c0-7.65,0-15.33,0-23,0-4.28.03-8.56,0-12.85-.06-6.59-4.43-11.74-10.54-12.47-7.77-.93-13.5,2.56-15.08,9.42-.54,2.34-.73,4.81-.75,7.22-.08,10.49-.03,20.97-.03,31.68h-13.05c0-9.72,0-19.47,0-29.22,0-2.08.05-4.16-.01-6.24-.25-8.34-5.09-12.96-13.46-12.9-6.67.05-12.3,5.96-12.37,13.26-.1,10.77-.03,21.53-.03,32.3,0,.84,0,1.67,0,2.84Z"/>
        <path class="cls-1" d="M190.69,74.54h-10.59v32.6h-13.71V25.89c10.17,0,20.19-.39,30.16.12,9.27.47,17.01,4.46,21.13,13.3,4.25,9.13,4.23,18.36-2.11,26.5-2.62,3.36-6.84,5.48-10.89,8.6,5.05,10.2,10.57,21.35,16.24,32.8h-14.69c-5.13-10.8-10.29-21.64-15.53-32.67ZM180.1,63.34c3.52,0,6.68.08,9.83-.03,2.19-.08,4.37-.37,6.54-.67,5.98-.82,10.33-5.09,10.86-10.61.59-6.1-2.63-12.11-8.45-13.28-6.07-1.23-12.43-1.03-18.78-1.46v26.06Z"/>
        <path class="cls-1" d="M551.48,81.32h-48.57c.65,8.03,5.19,13.82,12.13,15.76,8.1,2.26,15.92-.38,20.79-7.15h14.41c-4.79,14.92-19.9,21.31-36.7,18.52-17.2-2.86-26.48-18.11-24.04-36.03,2.43-17.8,17.41-28.22,36.15-25.91,16.68,2.05,27.37,16.23,25.82,34.82ZM537.18,71.26c-1.64-8.5-7.71-13.28-16.76-13.43-8.71-.14-15.28,5-16.97,13.43h33.74Z"/>
        <path class="cls-1" d="M228,25.1h12.25v28.76c2.05-1.78,3.43-3.28,5.08-4.37,13.72-8.99,34.01,1.04,34.6,17.4.48,13.3.1,26.64.1,40.27h-13.21c0-3.99,0-8.1,0-12.22,0-7.95.02-15.9,0-23.85-.02-6.95-4.56-11.86-11.33-12.26-7.91-.48-13.91,3.63-14.33,10.78-.57,9.75-.37,19.54-.48,29.31-.03,2.68,0,5.36,0,8.29h-12.68V25.1Z"/>
        <path class="cls-1" d="M615.09,108.93c-18.62.25-31.66-12.81-31.62-32.53.03-17.55,13.7-29.3,29.66-29.96,19.17-.79,33.36,11.98,33.68,30.12.33,18.48-12.48,32.96-31.72,32.37ZM633.42,77.82c-.09-11.35-7.65-19.31-18.39-19.35-10.41-.04-18.49,8.43-18.51,19.41-.02,10.63,8.2,19.24,18.34,19.23,10.6-.02,18.64-8.37,18.55-19.29Z"/>
        <path class="cls-1" d="M308.9,130.08h-14.08c2.67-6.98,5.41-13.71,7.75-20.56.64-1.86.68-4.36-.02-6.17-7.11-18.31-14.43-36.53-21.78-55h14.08c5.1,13.43,10.3,27.13,15.73,41.44,5.16-14.16,10.15-27.84,15.15-41.55h13.73c-10.18,27.26-20.34,54.47-30.56,81.84Z"/>
        <path class="cls-1" d="M349.88,60.32h-7.48v-11.74h7.34v-14.33h13.23v14.08h14.43v11.96h-14.38c0,5.71-.04,11.16.01,16.61.03,3.66-.14,7.37.37,10.97.9,6.4,4.25,8.76,10.6,8.1,1.08-.11,2.16-.26,3.56-.42v11.69c-4.99,0-10.15.68-15.05-.15-8.16-1.4-12.45-7.99-12.61-18.08-.13-8.07-.03-16.14-.03-24.22,0-1.33,0-2.65,0-4.5Z"/>
        <path class="cls-1" d="M562.29,25.05h12.77v82.19h-12.77V25.05Z"/>
      </g>
      <g>
        <path class="cls-1" d="M132.08,39.48v43.57h-18.44c-10.97,0-19.9-8.9-19.9-19.9v-24.68h-55.34v93.68H0V.11C.64.07,1.11.03,1.6.03,31.86.01,62.13-.05,92.39.09c5.72.04,11.24,1.78,16.33,4.49,12.9,6.85,20.68,17.48,23.02,31.92.1.66.18,1.31.25,1.97.04.33.08.68.1,1.01Z"/>
        <path class="cls-1" d="M130.4,93.86c.53,0,1.05.04,1.68.08v38.22h-38.32v-1.72c.02-5.64.02-11.3.02-16.96-.02-14.07-9.62-25.46-23.49-27.77-1.5-.25-3.02-.35-4.53-.35-5.68-.04-11.38-.02-17.09-.02h-1.7v-38.26h38.15c.04.55.1,1.09.1,1.6.02,5.64-.08,11.3.04,16.94.25,12.1,5.87,20.82,16.82,25.97,3.38,1.6,7.08,2.26,10.87,2.28h17.44Z"/>
      </g>
    </g>
  </g>
</svg>