<?xml version="1.0" encoding="UTF-8"?>
<svg id="Layer_2" data-name="Layer 2" xmlns="http://www.w3.org/2000/svg" viewBox="0 0 347.43 85.88">
  <defs>
    <style>
      .cls-1 {
        fill: #fff;
      }

      .cls-2 {
        fill: #1149f7;
      }

      .cls-3 {
        fill: #3862ff;
      }
    </style>
  </defs>
  <g id="OBJECTS">
    <g>
      <path class="cls-3" d="M347.43,7.52v78.36H0V7.52C0,3.52,3.25.28,7.25.28h332.94c4,0,7.24,3.24,7.24,7.24Z"/>
      <path class="cls-2" d="M8.06,0h129.64c-8.01,6.27-15,14.06-20.48,23.01-13.75,22.43-25.29,47.7-46.29,62.59H.81V7.24C.81,3.24,4.06,0,8.06,0Z"/>
      <path class="cls-2" d="M347.24,7.24v37.95c-14.79,7.03-31.45,9.47-47.82,4.69-28.27-8.25-46.53-32.93-69.66-49.89h110.23c4,0,7.24,3.24,7.24,7.24Z"/>
    </g>
    <g>
      <g>
        <path class="cls-1" d="M191.14,50.73h-2.52v-10.94h2.43v1.22c.9-1.16,2.04-1.66,3.45-1.57,1.37.09,2.49.58,3.23,1.79,1.43-2.49,5.54-2.18,6.9-.5.64.79,1.02,1.69,1.05,2.66.06,2.42.02,4.85.02,7.33h-2.44c0-1.42,0-2.84,0-4.27,0-.79,0-1.59,0-2.38-.01-1.22-.82-2.18-1.96-2.31-1.44-.17-2.5.48-2.8,1.75-.1.43-.14.89-.14,1.34-.01,1.95,0,3.89,0,5.88h-2.42c0-1.8,0-3.61,0-5.42,0-.39,0-.77,0-1.16-.05-1.55-.94-2.4-2.5-2.39-1.24,0-2.28,1.11-2.3,2.46-.02,2,0,3.99,0,5.99,0,.16,0,.31,0,.53Z"/>
        <path class="cls-1" d="M152.09,44.65h-1.96v6.05h-2.54v-15.07c1.89,0,3.75-.07,5.6.02,1.72.09,3.16.83,3.92,2.47.79,1.69.78,3.41-.39,4.92-.49.62-1.27,1.02-2.02,1.6.94,1.89,1.96,3.96,3.01,6.08h-2.73c-.95-2-1.91-4.02-2.88-6.06ZM150.13,42.57c.65,0,1.24.02,1.82,0,.41-.01.81-.07,1.21-.12,1.11-.15,1.92-.94,2.01-1.97.11-1.13-.49-2.25-1.57-2.46-1.13-.23-2.31-.19-3.48-.27v4.83Z"/>
        <path class="cls-1" d="M219.03,45.91h-9.01c.12,1.49.96,2.56,2.25,2.92,1.5.42,2.95-.07,3.86-1.33h2.67c-.89,2.77-3.69,3.95-6.81,3.44-3.19-.53-4.91-3.36-4.46-6.69.45-3.3,3.23-5.23,6.71-4.81,3.09.38,5.08,3.01,4.79,6.46ZM216.38,44.04c-.3-1.58-1.43-2.46-3.11-2.49-1.62-.03-2.83.93-3.15,2.49h6.26Z"/>
        <path class="cls-1" d="M159.01,35.48h2.27v5.34c.38-.33.64-.61.94-.81,2.55-1.67,6.31.19,6.42,3.23.09,2.47.02,4.94.02,7.47h-2.45c0-.74,0-1.5,0-2.27,0-1.47,0-2.95,0-4.42,0-1.29-.85-2.2-2.1-2.28-1.47-.09-2.58.67-2.66,2-.11,1.81-.07,3.63-.09,5.44,0,.5,0,.99,0,1.54h-2.35v-15.23Z"/>
        <path class="cls-1" d="M230.83,51.03c-3.46.05-5.87-2.38-5.87-6.03,0-3.26,2.54-5.44,5.5-5.56,3.56-.15,6.19,2.22,6.25,5.59.06,3.43-2.31,6.11-5.88,6.01ZM234.23,45.26c-.02-2.11-1.42-3.58-3.41-3.59-1.93,0-3.43,1.56-3.43,3.6,0,1.97,1.52,3.57,3.4,3.57,1.97,0,3.46-1.55,3.44-3.58Z"/>
        <path class="cls-1" d="M174.02,54.95h-2.61c.5-1.3,1-2.54,1.44-3.82.12-.35.13-.81,0-1.15-1.32-3.4-2.68-6.78-4.04-10.2h2.61c.95,2.49,1.91,5.03,2.92,7.69.96-2.63,1.88-5.16,2.81-7.71h2.55c-1.89,5.06-3.77,10.11-5.67,15.18Z"/>
        <path class="cls-1" d="M181.63,42.01h-1.39v-2.18h1.36v-2.66h2.45v2.61h2.68v2.22h-2.67c0,1.06,0,2.07,0,3.08,0,.68-.03,1.37.07,2.04.17,1.19.79,1.63,1.97,1.5.2-.02.4-.05.66-.08v2.17c-.93,0-1.88.13-2.79-.03-1.51-.26-2.31-1.48-2.34-3.35-.02-1.5,0-3,0-4.49,0-.25,0-.49,0-.83Z"/>
        <path class="cls-1" d="M221.03,35.47h2.37v15.25h-2.37v-15.25Z"/>
      </g>
      <g>
        <path class="cls-1" d="M141.22,38.14v8.08h-3.42c-2.04,0-3.69-1.65-3.69-3.69v-4.58h-10.27v17.38h-7.12v-24.5c.12,0,.21-.02.3-.02,5.61,0,11.23-.02,16.84.01,1.06,0,2.09.33,3.03.83,2.39,1.27,3.84,3.24,4.27,5.92.02.12.03.24.05.37,0,.06.02.13.02.19Z"/>
        <path class="cls-1" d="M140.91,48.23c.1,0,.19,0,.31.02v7.09h-7.11v-.32c0-1.05,0-2.1,0-3.15,0-2.61-1.78-4.72-4.36-5.15-.28-.05-.56-.06-.84-.06-1.05,0-2.11,0-3.17,0h-.32v-7.1h7.08c0,.1.02.2.02.3,0,1.05-.02,2.1,0,3.14.05,2.25,1.09,3.86,3.12,4.82.63.3,1.31.42,2.02.42h3.23Z"/>
      </g>
    </g>
  </g>
</svg>